<svg width="120" height="30" viewBox="0 0 120 30" fill="none" xmlns="http://www.w3.org/2000/svg">
<rect width="29.654" height="29.654" rx="8.65617" fill="#191B32"/>
<path d="M17.3015 4.94238L9.26691 16.36H15.1871L17.3015 4.94238Z" fill="#D6EC2C"/>
<path d="M12.1213 24.7117L20.1559 13.2941L14.2356 13.2941L12.1213 24.7117Z" fill="#D6EC2C"/>
<path d="M111.214 24.7627H106.552L107.618 18.4693L104.495 4.89111H109.323L110.785 12.9472H110.873L114.953 4.89111H120L112.281 18.4693L111.214 24.7627Z" fill="#191B32"/>
<path d="M90.0465 24.7627H85.593L88.9688 4.89111H92.4876L96.8091 15.7978H96.8971L98.7334 4.89111H103.187L99.8111 24.7627H96.2923L91.9708 13.856H91.8828L90.0465 24.7627Z" fill="#191B32"/>
<path d="M78.0167 9.20148C77.4815 9.20148 76.9757 9.38509 76.4992 9.75232C76.03 10.1195 75.6122 10.6291 75.2456 11.2809C74.8791 11.9327 74.5895 12.6855 74.3769 13.5394C74.1717 14.3932 74.069 15.3112 74.069 16.2936C74.069 17.129 74.179 17.8589 74.3989 18.4831C74.6189 19.1074 74.9267 19.594 75.3226 19.9429C75.7185 20.2826 76.184 20.4524 76.7191 20.4524C77.2543 20.4524 77.7601 20.2688 78.2366 19.9016C78.7131 19.5343 79.1346 19.0248 79.5012 18.373C79.8677 17.7211 80.1536 16.9683 80.3589 16.1145C80.5714 15.2515 80.6777 14.3289 80.6777 13.3466C80.6777 12.5019 80.5678 11.7721 80.3479 11.157C80.1279 10.5327 79.8164 10.0507 79.4132 9.71101C79.0173 9.37132 78.5518 9.20148 78.0167 9.20148ZM76.5762 25.107C75.066 25.107 73.7685 24.7398 72.6835 24.0053C71.6059 23.2617 70.7775 22.2518 70.1984 20.9757C69.6266 19.6996 69.3407 18.2582 69.3407 16.6516C69.3407 14.8338 69.568 13.1813 70.0225 11.694C70.477 10.2068 71.1037 8.93065 71.9028 7.86569C72.7092 6.80073 73.6439 5.98365 74.7068 5.41445C75.7698 4.83607 76.9097 4.54688 78.1266 4.54688C79.6808 4.54688 80.9966 4.91869 82.0743 5.66233C83.1592 6.40596 83.9839 7.41584 84.5484 8.69195C85.1202 9.95889 85.4061 11.3957 85.4061 13.0023C85.4061 14.8292 85.1752 16.4863 84.7133 17.9736C84.2588 19.4609 83.6247 20.737 82.811 21.802C82.0046 22.8669 81.0663 23.684 79.996 24.2532C78.933 24.8224 77.7931 25.107 76.5762 25.107Z" fill="#191B32"/>
<path d="M52.8245 24.7627L56.2003 4.89111H63.3368C64.4511 4.89111 65.3967 5.15276 66.1738 5.67606C66.9582 6.19018 67.5557 6.8925 67.9662 7.78303C68.3767 8.67355 68.582 9.68802 68.582 10.8264C68.582 11.7629 68.439 12.6717 68.1531 13.5531C67.8672 14.4252 67.4457 15.2102 66.8886 15.9079C66.3387 16.6057 65.6606 17.1519 64.8543 17.5467L66.6136 24.7627H61.7533L60.2579 18.0975H60.3678H58.6194L57.4868 24.7627H52.8245ZM60.1369 9.20144L59.2902 14.1039H61.3685C61.889 14.1039 62.3398 13.9846 62.721 13.7459C63.1022 13.5072 63.3954 13.1767 63.6007 12.7544C63.806 12.3321 63.9086 11.8501 63.9086 11.3084C63.9086 10.6015 63.7363 10.0736 63.3918 9.72474C63.0546 9.37588 62.5634 9.20144 61.9183 9.20144H60.1369Z" fill="#191B32"/>
<path d="M46.2487 24.7627H37.5618L40.9376 4.89111H48.294C49.3423 4.89111 50.2147 5.07932 50.9111 5.45573C51.6149 5.83213 52.139 6.34166 52.4836 6.98431C52.8354 7.61778 53.0114 8.32928 53.0114 9.11882C53.0114 10.0093 52.8501 10.8127 52.5275 11.5287C52.2123 12.2448 51.7725 12.8416 51.208 13.319C50.6509 13.7872 50.0058 14.1085 49.2727 14.2829L49.2617 14.3931C50.0974 14.6318 50.7975 15.1046 51.3619 15.8115C51.9264 16.5184 52.2087 17.3906 52.2087 18.428C52.2087 19.6582 51.9521 20.7507 51.4389 21.7055C50.9258 22.6603 50.2183 23.4085 49.3167 23.9502C48.4223 24.4919 47.3997 24.7627 46.2487 24.7627ZM44.8632 8.51289L44.1815 12.5478H46.1608C46.6079 12.5478 46.9965 12.4468 47.3264 12.2448C47.6562 12.0337 47.9128 11.7491 48.0961 11.391C48.2794 11.033 48.371 10.629 48.371 10.1792C48.371 9.69261 48.228 9.29325 47.9421 8.98111C47.6562 8.66896 47.2311 8.51289 46.6666 8.51289H44.8632ZM42.7959 20.7553H45.0611C45.5816 20.7553 46.0288 20.6452 46.4027 20.4248C46.7766 20.2045 47.0625 19.8923 47.2604 19.4884C47.4656 19.0753 47.5683 18.5979 47.5683 18.0562C47.5683 17.6706 47.495 17.3401 47.3484 17.0647C47.2017 16.7801 46.9818 16.5598 46.6886 16.4037C46.4027 16.2476 46.0435 16.1696 45.611 16.1696H43.5657L42.7959 20.7553Z" fill="#191B32"/>
</svg>
